<svg viewBox="0 0 128 128" xmlns="http://www.w3.org/2000/svg"><path d="M86.5 105.4c0-8.3 6.7-15.1 15-15.1 2.7 0 5.2.7 7.5 2V14c0-5.5-4.5-10-10-10H29c-5.5 0-10 4.5-10 10v100c0 5.5 4.5 10 10 10h70c.7 0 1.5-.1 2.2-.2l-10.8-9.2c-2.4-2.1-3.9-6.1-3.9-9.2z" fill="#F3EEDC"/><path d="M86.5 105.4c0-8.3 6.7-15.1 15-15.1 2.7 0 5.2.7 7.5 2 1.8-1 3.8-1.7 5.9-1.9V47.6l-5.9-5.4V53L73.3 85.8l-3.5-3.2c-3.2-3-8.2-3-11.5 0l-3.5 3.2L19 53.1V42.2l-5.9 5.4v67.9c0 4.7 3.8 8.5 8.5 8.5h79.9l-11.1-9.4c-2.4-2.1-3.9-6.1-3.9-9.2z" fill="#B0DCC1"/><path d="M79 25.5H49c-.8 0-1.5-.7-1.5-1.5s.7-1.5 1.5-1.5h30c.8 0 1.5.7 1.5 1.5s-.7 1.5-1.5 1.5zM89 35.5H39c-.8 0-1.5-.7-1.5-1.5s.7-1.5 1.5-1.5h50c.8 0 1.5.7 1.5 1.5s-.7 1.5-1.5 1.5zM89 45.5H39c-.8 0-1.5-.7-1.5-1.5s.7-1.5 1.5-1.5h50c.8 0 1.5.7 1.5 1.5s-.7 1.5-1.5 1.5zM89 55.5H39c-.8 0-1.5-.7-1.5-1.5s.7-1.5 1.5-1.5h50c.8 0 1.5.7 1.5 1.5s-.7 1.5-1.5 1.5z" fill="#4A374F"/><path d="M23.8 122.5h-2.2c-.3 0-.6 0-.9-.1h-.2c-.2 0-.4-.1-.6-.1-.1 0-.2 0-.2-.1-.3-.1-.5-.2-.8-.3-.2-.1-.5-.2-.7-.4h-.1l41.3-37.8c1.3-1.2 3-1.8 4.7-1.8s3.4.7 4.7 1.8l18.5 17c.3-1 .8-2 1.3-2.9l-13.1-12L113.4 51v39.6c1-.2 2-.3 3-.3V47.6c0-.2 0-.3-.1-.5V47c-.1-.2-.2-.3-.3-.4l-.1-.1-5.4-5V14c0-6.3-5.2-11.5-11.5-11.5H29c-6.3 0-11.5 5.2-11.5 11.5v27.6l-5.4 5-.1.1c-.1.1-.2.3-.3.4v.1c0 .1-.1.3-.1.5v67.9c0 2.8 1.2 5.3 3 7.1.1.1.2.1.2.2l.4.4c.1.1.2.2.4.3.1.1.3.2.4.3.1.1.3.2.4.3.1.1.2.1.4.2s.3.2.5.2c.1.1.2.1.4.2s.4.1.5.2c.1 0 .2.1.4.1.2.1.4.1.6.1.1 0 .2.1.4.1s.4.1.6.1h.3c.3 0 .7.1 1 .1h81.7l-3.6-3H23.8zm86.7-76.9l2.2 2-2.2 2v-4zM20.5 14c0-4.7 3.8-8.5 8.5-8.5h70c4.7 0 8.5 3.8 8.5 8.5v38.4L73.3 83.8l-2.5-2.3c-1.8-1.7-4.2-2.6-6.7-2.6s-4.9.9-6.7 2.6l-2.5 2.3-34.4-31.4V14zm-3 31.6v4l-2.2-2 2.2-2zm-1.7 73.9c-.8-1.1-1.2-2.5-1.2-3.9V51l37.9 34.8-36.7 33.7z" fill="#4A374F"/><g><path d="M116.5 95.3c-3 0-5.7 1.3-7.5 3.4-1.8-2.1-4.5-3.4-7.5-3.4-5.5 0-10 4.5-10 10 0 3.1 1.4 5.9 3.7 7.8L109 124l13.6-10.7c2.4-1.8 3.9-4.7 3.9-7.9 0-5.6-4.5-10.1-10-10.1z" fill="#F36360"/><path d="M116.5 93.8c-2.8 0-5.4 1-7.5 2.8-2.1-1.8-4.7-2.8-7.5-2.8-6.3 0-11.5 5.2-11.5 11.5 0 3.4 1.5 6.7 4.2 8.9 0 0 .1 0 .1.1l13.8 10.9c.3.2.6.3.9.3.3 0 .7-.1.9-.3l13.6-10.7.1-.1c2.8-2.2 4.4-5.5 4.4-9 0-6.4-5.2-11.6-11.5-11.6zm5.1 18.3c-.1 0-.1.1-.2.1l-12.5 9.9L96.2 112c-2-1.6-3.1-4-3.1-6.6 0-4.7 3.8-8.5 8.5-8.5 2.4 0 4.8 1.1 6.4 2.9.3.3.7.5 1.1.5s.8-.2 1.1-.5c1.6-1.8 3.9-2.9 6.4-2.9 4.7 0 8.5 3.8 8.5 8.5-.1 2.6-1.3 5.1-3.5 6.7z" fill="#4A374F"/></g></svg>